<?xml version="1.0" encoding="UTF-8" standalone="no"?>
<!-- Created with Inkscape (http://www.inkscape.org/) -->

<svg
   width="210mm"
   height="297mm"
   viewBox="0 0 210 297"
   version="1.1"
   id="svg5"
   inkscape:version="1.1 (c4e8f9ed74, 2021-05-24)"
   sodipodi:docname="controller.svg"
   xmlns:inkscape="http://www.inkscape.org/namespaces/inkscape"
   xmlns:sodipodi="http://sodipodi.sourceforge.net/DTD/sodipodi-0.dtd"
   xmlns="http://www.w3.org/2000/svg"
   xmlns:svg="http://www.w3.org/2000/svg">
  <sodipodi:namedview
     id="namedview7"
     pagecolor="#505050"
     bordercolor="#eeeeee"
     borderopacity="1"
     inkscape:pageshadow="0"
     inkscape:pageopacity="0"
     inkscape:pagecheckerboard="0"
     inkscape:document-units="mm"
     showgrid="false"
     inkscape:zoom="0.58796296"
     inkscape:cx="-169.22835"
     inkscape:cy="401.38583"
     inkscape:window-width="1423"
     inkscape:window-height="860"
     inkscape:window-x="2096"
     inkscape:window-y="108"
     inkscape:window-maximized="0"
     inkscape:current-layer="layer1" />
  <defs
     id="defs2" />
  <g
     inkscape:label="Layer 1"
     inkscape:groupmode="layer"
     id="layer1">
    <path
       style="fill:#ffffff;stroke-width:0.264583;fill-opacity:1"
       d="m 45.483758,189.14913 c -3.172589,-1.1214 -5.987398,-3.88012 -7.641297,-7.48903 -1.208314,-2.63662 -1.786243,-5.3186 -1.933054,-8.9707 -0.113616,-2.82635 0.03022,-4.02102 2.022744,-16.80104 3.037331,-19.48134 4.621346,-29.03207 5.568783,-33.57665 1.509442,-7.24036 3.777479,-12.90494 6.203044,-15.49252 0.755945,-0.80644 1.690705,-2.00202 2.077243,-2.65687 3.358333,-5.689428 12.722536,-9.521212 23.275599,-9.524254 2.503731,-7.15e-4 2.65438,0.03386 4.760077,1.09258 l 2.174518,1.093327 4.103465,-0.165355 c 5.488689,-0.221174 27.91232,-0.230376 34.53954,-0.01417 l 5.30065,0.172926 2.16795,-1.090025 c 2.12282,-1.067329 2.22454,-1.089918 4.88581,-1.08486 4.83981,0.0092 10.24071,0.977758 14.14434,2.536548 4.03645,1.611829 7.98051,4.722143 9.3353,7.361883 0.35939,0.70027 0.92121,1.39522 1.24847,1.54433 0.32726,0.14911 0.5322,0.37276 0.45541,0.49701 -0.0768,0.12424 -0.0388,0.22589 0.0845,0.22589 0.41805,0 2.43925,3.3653 3.2781,5.45803 0.8775,2.18916 2.15971,7.01401 2.47693,9.3205 0.10296,0.74858 0.27127,1.36105 0.37403,1.36105 0.10277,0 0.19548,0.38696 0.20605,0.8599 0.0105,0.47294 0.575,3.83538 1.2543,7.47208 1.19474,6.39607 3.80501,21.76202 4.90448,28.87134 2.19692,14.20547 1.50159,20.43715 -2.81623,25.2396 -1.52609,1.69739 -4.00012,3.32919 -5.87759,3.87671 -2.25401,0.65733 -5.30275,0.39144 -7.30021,-0.63668 -3.49555,-1.7992 -5.65934,-4.77952 -10.56241,-14.54826 -2.64335,-5.26653 -4.12197,-8.41099 -4.12197,-8.76589 0,-0.5109 -2.43969,-2.7369 -3.52659,-3.21769 -1.16266,-0.5143 -1.8352,-0.52498 -32.63079,-0.51829 l -31.443661,0.007 -1.353881,0.62776 c -0.744636,0.34526 -1.653138,1.02751 -2.018898,1.51611 -0.36576,0.48861 -3.070135,5.41275 -6.009728,10.94254 -4.820454,9.06797 -5.496141,10.20069 -6.888535,11.54799 -0.866787,0.83871 -2.318872,1.87537 -3.311132,2.36386 -2.219548,1.09268 -5.254798,1.32364 -7.405327,0.5635 z m 116.548962,-0.37768 c 2.87355,-0.86663 5.97736,-3.4485 7.48026,-6.22235 0.98276,-1.81385 1.76452,-4.9716 1.9497,-7.87532 0.16706,-2.61975 -0.39095,-9.26396 -1.24437,-14.81667 -1.59887,-10.40294 -5.75476,-34.14845 -5.94075,-33.94367 -0.0385,0.0423 -2.26191,3.35122 -4.94098,7.35305 -2.67907,4.00182 -6.02083,8.88338 -7.42615,10.84791 -5.13253,7.17492 -7.3281,10.20354 -7.96002,10.98021 -0.3552,0.43656 -1.36044,1.68672 -2.23387,2.77813 -0.87344,1.0914 -2.11496,2.50161 -2.75894,3.13379 l -1.17086,1.14943 1.18252,1.21672 c 0.65038,0.6692 1.53606,1.99743 1.96817,2.95162 3.37791,7.45924 7.77159,15.69278 9.82076,18.40365 2.87541,3.8039 7.07499,5.31003 11.27453,4.0435 z M 52.826058,188.08784 c 3.369553,-1.65949 3.809847,-2.26283 9.692493,-13.28177 2.91333,-5.45703 5.629191,-10.33859 6.035247,-10.84792 0.406059,-0.50932 0.725464,-0.98557 0.709793,-1.05833 -0.01566,-0.0728 0.198704,-0.29143 0.476395,-0.48593 0.475261,-0.33288 0.40885,-0.44933 -1.131731,-1.98437 -3.327395,-3.31544 -11.080307,-13.65998 -21.448499,-28.61824 -0.806932,-1.16417 -2.009936,-2.92726 -2.673342,-3.91798 -0.92637,-1.38344 -1.239229,-1.69034 -1.348594,-1.32292 -0.169201,0.56843 -2.949581,17.99413 -5.188067,32.51557 -1.721715,11.16906 -1.880574,13.47899 -1.196685,17.4007 0.908065,5.20724 3.279885,9.17882 6.689704,11.20183 1.79761,1.0665 3.171928,1.40063 5.486846,1.33395 1.794377,-0.0517 2.397427,-0.19633 3.89644,-0.93459 z m 19.380617,-26.80589 c 0.455541,-0.13765 14.038332,-0.23792 31.877855,-0.23535 28.50837,0.004 31.18088,0.0415 32.25206,0.45055 l 1.16796,0.44605 1.76248,-1.84826 c 3.30219,-3.4629 11.31814,-14.46173 20.18838,-27.70083 4.31062,-6.43373 4.73521,-7.16853 4.58659,-7.9375 -0.0901,-0.46608 -0.22155,-1.2046 -0.29213,-1.64117 -1.07103,-6.62417 -2.5989,-11.27901 -4.78137,-14.56704 -2.00555,-3.02149 -9.42434,-6.94882 -16.44001,-8.70294 -5.6012,-1.40046 -7.59887,-1.563687 -18.46348,-1.508623 -5.52979,0.02803 -19.51963,0.08455 -31.088542,0.125609 -22.818967,0.08099 -22.3391,0.05353 -28.578523,1.635142 -5.990333,1.518472 -11.856439,4.517482 -14.548156,7.437642 -2.053416,2.22769 -4.492344,8.43475 -5.810019,14.78646 l -0.713548,3.43959 1.627132,2.38125 c 0.894922,1.30968 2.203061,3.21468 2.906975,4.23333 0.703914,1.01865 2.173135,3.15632 3.264937,4.75038 1.091801,1.59407 2.352701,3.38716 2.802001,3.98467 0.449299,0.5975 1.293158,1.76254 1.875241,2.58899 7.728874,10.97352 14.154436,18.71634 15.183528,18.29618 0.234789,-0.0959 0.784077,-0.28222 1.220639,-0.41413 z m 8.069792,-9.22029 c -0.627319,-0.48144 -0.666046,-0.66549 -0.750371,-3.56599 l -0.08892,-3.05835 -2.821501,-0.004 c -1.551826,-0.002 -2.952507,-0.0915 -3.112625,-0.19844 -0.594619,-0.39704 -0.899504,-1.39445 -0.899504,-2.94267 0,-2.9673 0.653302,-3.46942 4.513991,-3.46942 h 2.318362 l 0.08955,-2.92603 c 0.08443,-2.7586 0.127405,-2.95507 0.751014,-3.4337 0.526053,-0.40375 1.104366,-0.50888 2.825068,-0.51356 2.025571,-0.005 2.198595,0.0386 2.711979,0.69126 0.474663,0.60343 0.54837,1.06576 0.54837,3.43958 v 2.74245 h 2.501093 c 3.773062,0 4.378074,0.47944 4.378074,3.46942 0,1.54822 -0.304884,2.54563 -0.899504,2.94267 -0.160118,0.10691 -1.571043,0.19621 -3.135392,0.19844 l -2.844271,0.004 v 2.92244 c 0,2.75007 -0.03831,2.96075 -0.649433,3.57188 -0.57976,0.57976 -0.870701,0.6488 -2.711979,0.64355 -1.620928,-0.005 -2.204172,-0.11458 -2.724005,-0.51353 z m 5.072397,-0.44764 c 0.41417,-0.37482 0.483854,-0.86689 0.483854,-3.41681 v -2.97894 l 3.064547,-0.0889 c 3.692125,-0.10712 3.81462,-0.20081 3.81462,-2.91761 0,-2.66642 -0.268431,-2.85985 -3.968751,-2.85985 h -2.910416 v -3.06161 c 0,-2.30061 -0.09395,-3.15555 -0.377976,-3.43958 -0.264584,-0.26458 -1.012976,-0.37797 -2.494643,-0.37797 -2.907466,0 -2.948215,0.0533 -2.948215,3.85535 v 3.02381 h -2.910417 c -3.71435,0 -3.96875,0.18656 -3.96875,2.91042 0,2.72386 0.2544,2.91042 3.96875,2.91042 h 2.910417 v 3.02381 c 0,3.78032 0.05532,3.85535 2.842337,3.85535 1.499764,0 2.133756,-0.11128 2.494643,-0.43788 z m 34.348806,-1.91027 c -2.11415,-0.69322 -4.05077,-2.39838 -5.06453,-4.45923 -0.89144,-1.81218 -0.86393,-4.43693 0.0673,-6.42178 2.85526,-6.08579 11.05936,-6.16943 14.20925,-0.14486 0.92005,1.75972 0.98789,4.6822 0.15077,6.49486 -0.68835,1.4905 -2.37564,3.2388 -3.86005,3.99963 -1.22726,0.62902 -4.30001,0.92574 -5.50274,0.53138 z m 5.16664,-0.92148 c 2.55676,-1.1906 4.07259,-3.35877 4.29625,-6.14516 0.24884,-3.09998 -1.22331,-5.7376 -4.02042,-7.20335 -1.1215,-0.58768 -1.66293,-0.69837 -3.32409,-0.67958 -2.4436,0.0277 -3.60772,0.50657 -5.26361,2.16547 -3.2444,3.25027 -2.68469,8.67149 1.17224,11.35406 1.82962,1.27254 5.01222,1.49924 7.13963,0.50856 z m -5.76339,-2.20699 c -1.71232,-0.95304 -2.69554,-2.87427 -2.52478,-4.93344 0.24181,-2.9159 2.95812,-5.18572 5.80265,-4.84882 4.57489,0.54182 6.34149,6.03281 2.96722,9.22278 -1.58293,1.49648 -4.14862,1.72633 -6.24509,0.55948 z m 5.09701,-0.21612 c 1.46573,-0.74937 2.38062,-2.45387 2.38062,-4.43522 0,-2.92 -2.27843,-4.91845 -5.27885,-4.63014 -3.4302,0.32959 -5.32115,3.94076 -3.71358,7.09186 1.14336,2.24117 4.26553,3.17308 6.61181,1.9735 z m 13.89,-9.23822 c -2.80992,-1.36946 -3.85103,-4.40467 -2.4474,-7.13508 1.05156,-2.04554 3.52059,-3.1552 5.69689,-2.56036 2.35878,0.64471 4.3455,3.51862 3.91622,5.66505 -0.28334,1.41669 -1.2232,2.94261 -2.21872,3.60223 -1.20923,0.80122 -3.73328,1.01967 -4.94699,0.42816 z m 4.28194,-0.5622 c 0.4633,-0.1871 1.15809,-0.81729 1.54399,-1.40042 2.31578,-3.49938 -0.41435,-7.94276 -4.50347,-7.32955 -2.3918,0.35867 -3.836,2.09195 -3.836,4.60381 0,3.64574 3.18952,5.58239 6.79548,4.12616 z m -3.42204,-1.85788 c -0.10915,-0.10981 -0.19844,-1.13883 -0.19844,-2.28672 v -2.08706 l 1.22967,0.0806 c 1.44159,0.0945 2.01237,0.67949 1.48579,1.52267 -0.20355,0.32595 -0.22735,0.57716 -0.0642,0.67799 0.38693,0.23914 0.31273,1.3426 -0.1141,1.69685 -0.46999,0.39005 -2.07448,0.66148 -2.33871,0.39563 z m 1.78593,-1.30208 c 0,-0.34733 -0.20457,-0.55822 -0.59531,-0.61372 -0.48834,-0.0694 -0.59531,0.0409 -0.59531,0.61372 0,0.57278 0.10697,0.68307 0.59531,0.61371 0.39074,-0.0555 0.59531,-0.26639 0.59531,-0.61371 z m 0,-1.98438 c 0,-0.21828 -0.26789,-0.43492 -0.59531,-0.48142 -0.45818,-0.0651 -0.59531,0.0458 -0.59531,0.48142 0,0.4356 0.13713,0.5465 0.59531,0.48142 0.32742,-0.0465 0.59531,-0.26314 0.59531,-0.48142 z m -76.721927,-0.70507 c -3.316089,-1.01732 -5.695783,-4.21826 -5.695783,-7.66143 0,-1.37373 0.870587,-3.817 1.593046,-4.47081 0.287991,-0.26063 0.527968,-0.60424 0.533281,-0.76359 0.01291,-0.38713 2.036241,-1.65009 3.433074,-2.14292 3.521758,-1.24255 7.772334,0.66001 9.552298,4.2756 0.910987,1.85047 0.871945,4.72513 -0.08928,6.57343 -1.159269,2.22912 -2.713926,3.55066 -4.950129,4.20786 -1.745636,0.51303 -2.657425,0.50925 -4.376508,-0.0181 z m 5.43291,-0.80698 c 1.442876,-0.64215 2.602108,-1.80426 3.444944,-3.4535 0.520594,-1.01869 0.639281,-1.64716 0.636556,-3.37071 -0.0029,-1.81004 -0.105305,-2.29254 -0.703469,-3.31323 -0.989296,-1.68811 -1.986611,-2.61646 -3.622162,-3.37169 -2.604048,-1.20245 -6.132701,-0.53789 -8.218377,1.54778 -1.530548,1.53055 -1.998009,2.76166 -2.001552,5.27132 -0.0028,1.97588 0.08686,2.40959 0.738333,3.57187 1.853314,3.30648 6.183281,4.69471 9.725727,3.11816 z m -5.773172,-2.10209 c -0.751165,-0.38705 -1.303925,-0.80377 -1.228357,-0.92604 0.07557,-0.12228 0.0055,-0.22232 -0.155736,-0.22232 -0.485839,0 -1.313974,-2.1678 -1.313974,-3.43958 0,-2.09815 1.446278,-4.32999 3.24675,-5.01025 1.362826,-0.51491 3.306704,-0.34139 4.705749,0.42006 0.994942,0.54152 1.440543,1.00589 1.954036,2.03633 1.142312,2.29232 0.811289,4.44777 -0.956927,6.23098 -1.767155,1.78213 -3.944797,2.0994 -6.251541,0.91082 z m 5.339297,-0.63429 c 2.602072,-1.76169 2.646233,-6.35624 0.07628,-7.93602 -1.517304,-0.93271 -2.70409,-1.11991 -4.250225,-0.67044 -2.173047,0.63172 -3.349027,2.28784 -3.341521,4.70581 0.009,2.91205 2.1199,4.84991 5.064147,4.6491 1.024477,-0.0699 1.797801,-0.30599 2.451319,-0.74845 z m 59.132322,1.08515 c -2.30321,-0.69799 -3.74236,-2.64288 -3.74236,-5.05747 0,-2.72746 2.31096,-5.00842 5.07429,-5.00842 1.16026,0 3.18885,0.70147 3.18885,1.10268 0,0.13831 0.0938,0.19351 0.2084,0.12267 0.11462,-0.0708 0.55423,0.48643 0.97692,1.23838 0.5534,0.98447 0.76853,1.72473 0.76853,2.64455 0,3.33362 -3.35545,5.90288 -6.47463,4.95761 z m 3.35095,-0.77804 c 4.55864,-2.07043 2.91711,-8.90335 -2.11466,-8.80235 -3.01672,0.0605 -5.18223,2.91655 -4.40369,5.80782 0.37739,1.40153 1.09987,2.26468 2.45849,2.93718 1.38292,0.68453 2.63985,0.70229 4.05986,0.0573 z m -2.53434,-3.08068 c 0,-0.51512 -0.23812,-1.40334 -0.52916,-1.97383 -0.61805,-1.21148 -0.661,-1.5875 -0.1813,-1.5875 0.19133,0 0.55454,0.43339 0.80714,0.96309 l 0.45927,0.9631 0.48048,-0.89695 c 0.26427,-0.49332 0.69023,-0.93839 0.94657,-0.98903 0.38909,-0.0769 0.32936,0.16037 -0.36158,1.43605 -0.45521,0.84047 -0.82767,1.86417 -0.82767,2.27489 0,0.4874 -0.13784,0.74676 -0.39687,0.74676 -0.27803,0 -0.39688,-0.28045 -0.39688,-0.93658 z m 19.97605,3.61055 c -3.70168,-1.7118 -4.44224,-5.80567 -1.54559,-8.54411 0.95457,-0.90243 1.94037,-1.27361 3.38258,-1.27361 1.24775,0 3.0578,0.63782 3.0578,1.0775 0,0.15216 0.0968,0.21681 0.21515,0.14368 0.31527,-0.19485 1.60416,1.90692 1.79578,2.92837 0.40067,2.13575 -0.84047,4.47938 -2.9213,5.51631 -1.55643,0.7756 -2.55344,0.8136 -3.98442,0.15186 z m 3.44902,-0.37899 c 2.58107,-0.99811 3.6976,-3.63242 2.6263,-6.19639 -0.78459,-1.87778 -2.19337,-2.75671 -4.40527,-2.74839 -2.68494,0.0101 -4.44818,1.8715 -4.44818,4.69579 0,3.27662 3.16214,5.43425 6.22715,4.24899 z m -3.5315,-2.6257 c 0.0487,-0.18191 0.37855,-1.19394 0.73293,-2.24896 0.87737,-2.61202 1.33302,-2.58491 2.23824,0.13319 0.79858,2.39794 0.80436,2.44649 0.29135,2.44649 -0.21551,0 -0.46654,-0.29765 -0.55785,-0.66145 -0.12734,-0.50735 -0.33759,-0.66146 -0.9024,-0.66146 -0.56482,0 -0.77506,0.15411 -0.9024,0.66146 -0.0913,0.3638 -0.35107,0.66145 -0.57725,0.66145 -0.22618,0 -0.37136,-0.14882 -0.32262,-0.33072 z m 2.14351,-2.05053 c -0.0761,-0.29104 -0.22966,-0.52916 -0.34124,-0.52916 -0.11158,0 -0.26514,0.23812 -0.34125,0.52916 -0.1008,0.38546 -0.008,0.52917 0.34125,0.52917 0.34936,0 0.44204,-0.14371 0.34124,-0.52917 z m -39.34988,2.62563 c -1.2011,-1.05458 -1.45958,-2.28089 -0.77811,-3.69147 1.23944,-2.56551 4.84415,-2.24281 5.86476,0.52502 0.28456,0.77171 -0.0263,2.3786 -0.52086,2.69215 -0.19242,0.122 -0.2308,0.22443 -0.0853,0.22762 0.14552,0.003 -0.0926,0.24235 -0.52917,0.53147 -1.23986,0.82113 -2.82161,0.70712 -3.95134,-0.28479 z m 3.96345,-0.25442 c 0.19674,-0.16328 0.49583,-0.71539 0.66465,-1.22692 0.75518,-2.28823 -1.8466,-4.40488 -3.9987,-3.25311 -0.66901,0.35805 -1.30826,1.62318 -1.30826,2.58917 0,2.0825 2.95913,3.28778 4.64231,1.89086 z m -3.58398,-1.44516 c 0,-0.50933 -0.11906,-0.92605 -0.26458,-0.92605 -0.52383,0 -0.23402,-0.4105 0.81273,-1.15122 l 1.06602,-0.75435 1.03287,0.71578 c 0.91549,0.63444 1.01661,0.81037 0.88981,1.5481 -0.25617,1.49043 -0.26052,1.49378 -1.94105,1.49378 h -1.5958 z m 2.91042,-0.44597 c 0,-0.49476 -0.23179,-1.08958 -0.56126,-1.44028 -0.52415,-0.55793 -0.60289,-0.57017 -1.19063,-0.18506 -0.484,0.31713 -0.62936,0.64979 -0.62936,1.44028 v 1.0279 h 1.19062 c 1.16194,0 1.19063,-0.0203 1.19063,-0.84284 z m -2.11667,-0.0832 c 0,-0.57956 0.11465,-0.66146 0.92604,-0.66146 0.81139,0 0.92604,0.0819 0.92604,0.66146 0,0.57956 -0.11465,0.66146 -0.92604,0.66146 -0.81139,0 -0.92604,-0.0819 -0.92604,-0.66146 z m 1.25126,-0.0276 c -0.0879,-0.0879 -0.31612,-0.0973 -0.50712,-0.0209 -0.21107,0.0845 -0.14837,0.14716 0.15985,0.15985 0.27892,0.0115 0.43519,-0.051 0.34727,-0.13896 z m -22.143818,2.28801 c -0.616071,-0.38966 -0.716989,-3.72675 -0.139361,-4.60832 0.421788,-0.64373 0.595611,-0.69484 2.363098,-0.69484 1.65213,0 1.98493,0.0821 2.48312,0.61237 0.7022,0.74746 0.79344,2.96079 0.17161,4.16327 -0.39448,0.76285 -0.45017,0.78052 -2.44739,0.77656 -1.124054,-0.002 -2.218037,-0.1143 -2.431077,-0.24904 z m 4.435477,-0.59358 c 0.32817,-0.32817 0.44055,-3.02271 0.1569,-3.7619 -0.12585,-0.32795 -0.5724,-0.41851 -2.06375,-0.41851 -1.127454,0 -2.032562,0.12941 -2.220654,0.3175 -0.33382,0.33382 -0.452202,3.69294 -0.141111,4.00403 0.313468,0.31347 3.933705,0.19379 4.268615,-0.14112 z m -3.292347,-0.41598 c -1.065115,-0.85854 -1.045017,-1.98219 0.05513,-3.08234 1.311397,-1.3114 3.872567,0.64088 2.996987,2.28448 -0.69134,1.29775 -2.00568,1.64134 -3.052121,0.79786 z m 2.463527,-0.75221 c 0.40607,-0.61975 0.41274,-0.76469 0.0639,-1.38906 -0.74179,-1.3277 -2.886334,-0.8463 -2.886334,0.64791 0,1.45858 2.007024,1.98562 2.822434,0.74115 z m 43.146421,-4.93914 c -5.48458,-1.7757 -4.42213,-9.97418 1.29311,-9.97834 1.42627,-0.001 3.27345,0.60642 3.27345,1.07651 0,0.15215 0.094,0.21853 0.20896,0.1475 0.11493,-0.071 0.55943,0.42483 0.98778,1.1019 2.0226,3.19704 0.0345,7.35677 -3.74865,7.8433 -0.56098,0.0721 -1.46757,-0.0138 -2.01465,-0.19087 z m 3.51618,-0.78506 c 4.3675,-2.20639 2.92532,-8.69108 -1.94766,-8.75757 -2.73708,-0.0373 -4.67487,1.85731 -4.67487,4.5708 0,3.6797 3.3873,5.82116 6.62253,4.18677 z m -3.70623,-2.24896 c 0.003,-0.10914 0.23871,-0.49609 0.52328,-0.8599 0.65506,-0.83744 0.65506,-1.25985 0,-2.24895 -0.62372,-0.94179 -0.6568,-1.19063 -0.15827,-1.19063 0.20399,0 0.60839,0.3751 0.89866,0.83356 l 0.52777,0.83355 0.43105,-0.83355 c 0.23708,-0.45846 0.60658,-0.83356 0.82113,-0.83356 0.54607,0 0.48626,0.44469 -0.18698,1.39017 l -0.57705,0.8104 0.57705,1.00265 c 0.68525,1.19065 0.69942,1.2947 0.17629,1.2947 -0.22042,0 -0.62078,-0.3618 -0.8897,-0.80399 l -0.48893,-0.80399 -0.33303,0.80399 c -0.20384,0.49212 -0.52584,0.80399 -0.83009,0.80399 -0.27338,0 -0.49442,-0.0893 -0.49118,-0.19844 z m -52.834187,-0.14167 c -2.005548,-1.12459 -2.344331,-3.60644 -0.698122,-5.11431 1.339694,-1.22712 2.82639,-1.25625 4.164224,-0.0816 1.174528,1.03125 1.450988,2.26506 0.820714,3.66275 -0.709769,1.57399 -2.849362,2.33922 -4.286816,1.53318 z m 3.230197,-0.7931 c 0.510826,-0.43939 0.739902,-0.93817 0.840404,-1.82982 0.125471,-1.11316 0.06147,-1.30074 -0.696608,-2.04179 -1.500108,-1.4664 -3.7943,-1.00679 -4.521476,0.90583 -0.461949,1.21502 0.218091,2.93727 1.332879,3.3756 0.942226,0.37049 2.359401,0.17974 3.044801,-0.40982 z m -3.660508,-1.41359 c -0.102973,-0.10298 -0.187224,-0.40324 -0.187224,-0.66726 0,-0.59268 0.797314,-0.81477 2.531075,-0.70503 1.193986,0.0756 1.305383,0.13908 1.305383,0.74409 0,0.63031 -0.08152,0.66508 -1.731005,0.73844 -0.95205,0.0423 -1.815253,-0.007 -1.918229,-0.11024 z m 3.252359,-0.6282 c 0,-0.14552 -0.654844,-0.26459 -1.455208,-0.26459 -0.800365,0 -1.455209,0.11907 -1.455209,0.26459 0,0.14552 0.654844,0.26458 1.455209,0.26458 0.800364,0 1.455208,-0.11906 1.455208,-0.26458 z m 30.810379,2.77868 c -2.1895,-1.11901 -2.25095,-4.25518 -0.10817,-5.52095 2.21492,-1.30838 5.01146,0.53327 4.67045,3.07571 -0.28828,2.14924 -2.65719,3.4189 -4.56228,2.44524 z m 3.31175,-0.91768 c 1.06476,-1.04084 1.11172,-2.51169 0.1179,-3.69278 -0.58877,-0.69972 -0.86242,-0.81406 -1.9483,-0.81406 -1.73621,0 -2.65839,0.89151 -2.65839,2.56998 0,2.49015 2.72149,3.66445 4.48879,1.93686 z m -2.17369,-0.20105 c -0.25466,-0.0612 -0.46302,-0.26723 -0.46302,-0.45787 0,-0.19064 -0.23812,-0.40889 -0.52917,-0.485 -0.7036,-0.18399 -0.71011,-1.24847 -0.009,-1.43188 0.28622,-0.0748 0.5919,-0.36136 0.67928,-0.63669 0.21067,-0.66375 1.19216,-0.64953 1.36719,0.0198 0.0749,0.28623 0.36136,0.59191 0.63669,0.67929 0.27533,0.0874 0.5006,0.26019 0.5006,0.384 0,0.45989 -0.32956,1.06214 -0.58121,1.06214 -0.14301,0 -0.45769,0.21993 -0.6993,0.48873 -0.2416,0.2688 -0.64764,0.43867 -0.9023,0.37748 z m 0.59531,-0.8662 c 0,-0.35278 0.17639,-0.52917 0.52917,-0.52917 0.29104,0 0.52917,-0.11906 0.52917,-0.26458 0,-0.14552 -0.23813,-0.26459 -0.52917,-0.26459 -0.35278,0 -0.52917,-0.17639 -0.52917,-0.52916 0,-0.29104 -0.11906,-0.52917 -0.26458,-0.52917 -0.14552,0 -0.26458,0.23813 -0.26458,0.52917 0,0.35277 -0.17639,0.52916 -0.52917,0.52916 -0.29104,0 -0.52917,0.11907 -0.52917,0.26459 0,0.14552 0.23813,0.26458 0.52917,0.26458 0.35278,0 0.52917,0.17639 0.52917,0.52917 0,0.29104 0.11906,0.52916 0.26458,0.52916 0.14552,0 0.26458,-0.23812 0.26458,-0.52916 z M 155.83969,104.21 c -0.56102,-1.08488 -2.58059,-3.0521 -4.40578,-4.291564 -4.2509,-2.886728 -11.50825,-4.768585 -18.27473,-4.738701 -3.00129,0.01326 -3.01415,0.01604 -5.18549,1.124479 l -2.17674,1.111192 3.90975,0.03965 c 8.44793,0.08567 16.23773,1.941937 22.80102,5.433344 1.38245,0.73541 2.7484,1.50148 3.03544,1.70237 0.7156,0.50083 0.73773,0.47242 0.29653,-0.38077 z m -99.894851,-1.7464 c 5.816263,-3.016866 12.678396,-4.579378 21.268719,-4.842899 l 5.00688,-0.153595 -2.359787,-1.185768 -2.35979,-1.185768 -4.102301,0.152432 c -7.637487,0.283791 -13.711953,2.160468 -18.08814,5.588238 -1.490128,1.16719 -3.34437,3.22391 -3.34437,3.70957 0,0.10968 0.506015,-0.11207 1.124479,-0.49277 0.618463,-0.3807 1.902903,-1.09595 2.85431,-1.58944 z M 124.5226,97.222518 c -0.4647,-0.04873 -15.93571,-0.203946 -24.40238,-0.203946 -8.466669,0 -17.028388,0.12179 -17.028388,0.294583 0,0.02816 -0.278363,0.187512 0.141682,0.20638 2.157088,0.0969 9.80001,0.0282 16.886706,0.0282 8.46667,0 24.71916,0.163834 24.89774,0.05717 0.56545,-0.337727 -0.29091,-0.360952 -0.49536,-0.38239 z"
       id="path417"
       sodipodi:nodetypes="cssssscsscsscsssssssssscssssssssccsssssccsssscssssscssssssssssssssssssscscssscssssssscssssscssscccsscsscsscsssccsscsssscssscsssscssscsssssssssssssscsssssssssssssssssssssssscscssssccsssssssssscsssssssccsscsssssssssssssssssscsssssscsssccssccsssscssssssssssssssssssscssssssscssssssssscssssssssssscssscssssscsssssssscsssssssscssssssssssssssssccsssccscsscsssscssscssscsscsssssssssssscsssccsssssssssssssscsscscssssccssssssssssssssssscsssssscccssssssssssss"
       inkscape:export-filename="/home/igneefleur/Documents/programs/keyboard2controller/images/controller._whitepng"
       inkscape:export-xdpi="96"
       inkscape:export-ydpi="96" />
  </g>
</svg>
